<svg width="1280" height="420" viewBox="0 0 1280 420" fill="none" xmlns="http://www.w3.org/2000/svg" role="img" aria-label="OfficeSkills — extract a company's Office template into a reusable Brand Profile, then generate unlimited on-brand Word, PowerPoint and Excel documents">
  <defs>
    <linearGradient id="bg" x1="0" y1="0" x2="1280" y2="420" gradientUnits="userSpaceOnUse">
      <stop offset="0" stop-color="#0B1022"/>
      <stop offset="0.55" stop-color="#111A36"/>
      <stop offset="1" stop-color="#0C1430"/>
    </linearGradient>
    <linearGradient id="accent" x1="0" y1="0" x2="1" y2="1">
      <stop offset="0" stop-color="#6EA8FE"/>
      <stop offset="1" stop-color="#5B8DEF"/>
    </linearGradient>
    <linearGradient id="scan" x1="0" y1="0" x2="0" y2="1">
      <stop offset="0" stop-color="#6EA8FE" stop-opacity="0"/>
      <stop offset="0.5" stop-color="#6EA8FE" stop-opacity="0.5"/>
      <stop offset="1" stop-color="#6EA8FE" stop-opacity="0"/>
    </linearGradient>
    <filter id="soft" x="-20%" y="-20%" width="140%" height="140%">
      <feDropShadow dx="0" dy="6" stdDeviation="10" flood-color="#000000" flood-opacity="0.35"/>
    </filter>
    <pattern id="dots" width="26" height="26" patternUnits="userSpaceOnUse">
      <circle cx="1.4" cy="1.4" r="1.4" fill="#FFFFFF" fill-opacity="0.045"/>
    </pattern>
    <marker id="arrow" markerWidth="9" markerHeight="9" refX="6" refY="4.5" orient="auto">
      <path d="M0 0 L9 4.5 L0 9 z" fill="#6EA8FE"/>
    </marker>
  </defs>

  <rect width="1280" height="420" rx="20" fill="url(#bg)"/>
  <rect width="1280" height="420" rx="20" fill="url(#dots)"/>
  <rect x="0.5" y="0.5" width="1279" height="419" rx="20" fill="none" stroke="#FFFFFF" stroke-opacity="0.06"/>

  <!-- ============ TOP BAND: wordmark + tagline ============ -->
  <!-- Office 2x2 tile mark -->
  <g>
    <rect x="44" y="40" width="16" height="16" rx="3.5" fill="#2B7CD3"/>
    <rect x="63" y="40" width="16" height="16" rx="3.5" fill="#E0742B"/>
    <rect x="44" y="59" width="16" height="16" rx="3.5" fill="#2BA45F"/>
    <rect x="63" y="59" width="16" height="16" rx="3.5" fill="#6EA8FE"/>
  </g>
  <text x="96" y="69" font-family="ui-sans-serif, system-ui, -apple-system, Segoe UI, Roboto, Helvetica, sans-serif" font-size="33" font-weight="800" letter-spacing="-0.5" fill="#FFFFFF">Office<tspan fill="#6EA8FE">Skills</tspan></text>

  <text x="1234" y="50" text-anchor="end" font-family="ui-sans-serif, system-ui, sans-serif" font-size="14.5" font-weight="600" fill="#C9D8F5">Your company's Office template, learned once.</text>
  <text x="1234" y="73" text-anchor="end" font-family="ui-sans-serif, system-ui, sans-serif" font-size="14.5" font-weight="500" fill="#9DB4E8">Unlimited on-brand Word, PowerPoint &amp; Excel — forever.</text>

  <line x1="44" y1="104" x2="1236" y2="104" stroke="#FFFFFF" stroke-opacity="0.07"/>

  <!-- ============ PIPELINE ============ -->
  <!-- pipeline baseline ~ y=262 -->

  <!--  STAGE A: company template  -->
  <g filter="url(#soft)">
    <rect x="64" y="170" width="196" height="176" rx="12" fill="#161F3D" stroke="#2C3A66" stroke-width="1.5"/>
    <rect x="64" y="170" width="196" height="30" rx="12" fill="#1E2A50"/>
    <circle cx="84" cy="185" r="6" fill="url(#accent)"/>
    <rect x="98" y="181" width="60" height="8" rx="4" fill="#43568C"/>
    <text x="84" y="240" font-family="Georgia, 'Times New Roman', serif" font-size="28" font-weight="700" fill="#E8EEFF">Aa</text>
    <rect x="134" y="222" width="92" height="7" rx="3.5" fill="#3A4A7C"/>
    <rect x="134" y="236" width="74" height="7" rx="3.5" fill="#33426F"/>
    <rect x="84" y="258" width="20" height="20" rx="5" fill="#2B7CD3"/>
    <rect x="110" y="258" width="20" height="20" rx="5" fill="#E0742B"/>
    <rect x="136" y="258" width="20" height="20" rx="5" fill="#2BA45F"/>
    <rect x="162" y="258" width="20" height="20" rx="5" fill="#F472B6"/>
    <rect x="84" y="294" width="142" height="6" rx="3" fill="#2E3C68"/>
    <rect x="84" y="308" width="120" height="6" rx="3" fill="#2A375F"/>
    <rect x="84" y="322" width="134" height="6" rx="3" fill="#2A375F"/>
    <rect x="64" y="214" width="196" height="20" fill="url(#scan)"/>
  </g>
  <text x="162" y="370" text-anchor="middle" font-family="ui-monospace, SFMono-Regular, Menlo, monospace" font-size="12.5" fill="#9DB4E8">your company template</text>

  <!--  ARROW A -> B  (step 1: EXTRACT)  -->
  <line x1="266" y1="262" x2="392" y2="262" stroke="#3C4E84" stroke-width="2.5" stroke-dasharray="2 7" stroke-linecap="round" marker-end="url(#arrow)"/>
  <circle cx="306" cy="224" r="11" fill="url(#accent)"/>
  <text x="306" y="228" text-anchor="middle" font-family="ui-sans-serif, system-ui, sans-serif" font-size="13" font-weight="800" fill="#0B1022">1</text>
  <text x="324" y="228" font-family="ui-sans-serif, system-ui, sans-serif" font-size="14" font-weight="700" fill="#9DC0FF">EXTRACT</text>
  <text x="329" y="296" text-anchor="middle" font-family="ui-sans-serif, system-ui, sans-serif" font-size="11.5" fill="#7E96CC">learn the brand</text>

  <!--  STAGE B: Brand Profile (brand-kit)  -->
  <g filter="url(#soft)">
    <rect x="398" y="166" width="356" height="192" rx="14" fill="#16213F" stroke="url(#accent)" stroke-width="1.6"/>
    <!-- save/disk icon -->
    <g transform="translate(420,184)">
      <rect x="0" y="0" width="22" height="22" rx="4" fill="#0E1730" stroke="#6EA8FE" stroke-width="1.5"/>
      <rect x="5" y="0" width="12" height="7" rx="1" fill="#6EA8FE"/>
      <rect x="5" y="12" width="12" height="8" rx="1" fill="none" stroke="#6EA8FE" stroke-width="1.3"/>
    </g>
    <text x="452" y="194" font-family="ui-sans-serif, system-ui, sans-serif" font-size="15.5" font-weight="700" fill="#EAF1FF">Brand Profile</text>
    <text x="452" y="212" font-family="ui-monospace, SFMono-Regular, Menlo, monospace" font-size="11" fill="#8FA6D8">brand-kit/ · saved once, reused freely</text>
    <line x1="416" y1="226" x2="736" y2="226" stroke="#2C3A66"/>
    <!-- captured items, two columns -->
    <g font-family="ui-sans-serif, system-ui, sans-serif" font-size="12.5" fill="#C9D8F5">
      <circle cx="424" cy="248" r="2.6" fill="#6EA8FE"/><text x="434" y="252">colors &amp; fonts</text>
      <circle cx="424" cy="274" r="2.6" fill="#6EA8FE"/><text x="434" y="278">named styles -> roles</text>
      <circle cx="424" cy="300" r="2.6" fill="#6EA8FE"/><text x="434" y="304">ordered structure</text>
      <circle cx="424" cy="326" r="2.6" fill="#6EA8FE"/><text x="434" y="330">layouts</text>
      <circle cx="586" cy="248" r="2.6" fill="#6EA8FE"/><text x="596" y="252">cover anchors</text>
      <circle cx="586" cy="274" r="2.6" fill="#6EA8FE"/><text x="596" y="278">logos &amp; media</text>
      <circle cx="586" cy="300" r="2.6" fill="#6EA8FE"/><text x="596" y="304">tables &amp; formulas</text>
      <circle cx="586" cy="326" r="2.6" fill="#6EA8FE"/><text x="596" y="330">byte-for-byte shell</text>
    </g>
  </g>
  <text x="576" y="382" text-anchor="middle" font-family="ui-sans-serif, system-ui, sans-serif" font-size="11.5" fill="#7E96CC">the brand, captured as reusable rules + the original shell</text>

  <!--  ARROW B -> C  (step 2: GENERATE)  -->
  <line x1="760" y1="262" x2="858" y2="262" stroke="#3C4E84" stroke-width="2.5" stroke-dasharray="2 7" stroke-linecap="round"/>
  <path d="M858 262 C 882 262, 884 196, 910 196" stroke="#3C4E84" stroke-width="2.5" fill="none" stroke-linecap="round" marker-end="url(#arrow)"/>
  <path d="M858 262 H 906" stroke="#3C4E84" stroke-width="2.5" fill="none" stroke-linecap="round" marker-end="url(#arrow)"/>
  <path d="M858 262 C 882 262, 884 328, 910 328" stroke="#3C4E84" stroke-width="2.5" fill="none" stroke-linecap="round" marker-end="url(#arrow)"/>
  <circle cx="788" cy="224" r="11" fill="url(#accent)"/>
  <text x="788" y="228" text-anchor="middle" font-family="ui-sans-serif, system-ui, sans-serif" font-size="13" font-weight="800" fill="#0B1022">2</text>
  <text x="806" y="228" font-family="ui-sans-serif, system-ui, sans-serif" font-size="14" font-weight="700" fill="#9DC0FF">GENERATE</text>
  <text x="809" y="296" text-anchor="middle" font-family="ui-sans-serif, system-ui, sans-serif" font-size="11.5" fill="#7E96CC">fill the shell · QA pass</text>

  <!--  STAGE C: on-brand outputs  -->
  <!-- Word -->
  <g filter="url(#soft)">
    <rect x="912" y="172" width="232" height="48" rx="11" fill="#16203E" stroke="#2C3A66" stroke-width="1.4"/>
    <rect x="912" y="172" width="6" height="48" rx="3" fill="#2B7CD3"/>
    <rect x="932" y="184" width="24" height="24" rx="5" fill="#102742" stroke="#2B7CD3" stroke-width="1.3"/>
    <text x="944" y="201" text-anchor="middle" font-family="ui-sans-serif, system-ui, sans-serif" font-size="12" font-weight="800" fill="#7FB6F2">W</text>
    <text x="970" y="192" font-family="ui-sans-serif, system-ui, sans-serif" font-size="14" font-weight="700" fill="#EAF1FF">Word</text>
    <text x="970" y="210" font-family="ui-monospace, Menlo, monospace" font-size="11" fill="#7E96CC">.docx</text>
  </g>
  <!-- PowerPoint -->
  <g filter="url(#soft)">
    <rect x="912" y="234" width="232" height="48" rx="11" fill="#16203E" stroke="#2C3A66" stroke-width="1.4"/>
    <rect x="912" y="234" width="6" height="48" rx="3" fill="#E0742B"/>
    <rect x="932" y="246" width="24" height="24" rx="5" fill="#33240F" stroke="#E0742B" stroke-width="1.3"/>
    <text x="944" y="263" text-anchor="middle" font-family="ui-sans-serif, system-ui, sans-serif" font-size="12" font-weight="800" fill="#F2A368">P</text>
    <text x="970" y="254" font-family="ui-sans-serif, system-ui, sans-serif" font-size="14" font-weight="700" fill="#EAF1FF">PowerPoint</text>
    <text x="970" y="272" font-family="ui-monospace, Menlo, monospace" font-size="11" fill="#7E96CC">.pptx</text>
  </g>
  <!-- Excel -->
  <g filter="url(#soft)">
    <rect x="912" y="296" width="232" height="48" rx="11" fill="#16203E" stroke="#2C3A66" stroke-width="1.4"/>
    <rect x="912" y="296" width="6" height="48" rx="3" fill="#2BA45F"/>
    <rect x="932" y="308" width="24" height="24" rx="5" fill="#0F2A1C" stroke="#2BA45F" stroke-width="1.3"/>
    <text x="944" y="325" text-anchor="middle" font-family="ui-sans-serif, system-ui, sans-serif" font-size="12" font-weight="800" fill="#6FD79E">X</text>
    <text x="970" y="316" font-family="ui-sans-serif, system-ui, sans-serif" font-size="14" font-weight="700" fill="#EAF1FF">Excel</text>
    <text x="970" y="334" font-family="ui-monospace, Menlo, monospace" font-size="11" fill="#7E96CC">.xlsx</text>
  </g>
  <text x="1028" y="372" text-anchor="middle" font-family="ui-sans-serif, system-ui, sans-serif" font-size="11.5" fill="#7E96CC">one profile -> unlimited on-brand documents</text>

  <!-- footer chips: the three verbs -->
  <g transform="translate(44,392)" font-family="ui-monospace, SFMono-Regular, Menlo, monospace" font-size="11" fill="#9DB4E8">
    <rect x="0" y="-13" width="78" height="22" rx="11" fill="#16213F" stroke="#2C3A66"/><text x="13" y="2">extract</text>
    <rect x="86" y="-13" width="70" height="22" rx="11" fill="#16213F" stroke="#2C3A66"/><text x="100" y="2">verify</text>
    <rect x="164" y="-13" width="84" height="22" rx="11" fill="#16213F" stroke="#2C3A66"/><text x="178" y="2">generate</text>
  </g>
</svg>
